#!OML:ASF E:\motion texture\Top Level 1\Subject 1\Session 1\male.ASF
:FULLY-SPECIFIED
:DEGREES
221
root 18.512 17.7552 6.62662 18.4717 -54.0703 -10.3137
lowerback 0.805389 7.48397 -4.74403
upperback 2.21492 9.96623 -3.41805
thorax 1.64952 4.90237 -0.860617
lowerneck -9.87424 -12.2503 -19.1729
upperneck -2.74439 -15.1221 22.1945
head 4.15635 -7.04921 8.74156
rclavicle -4.37326e-015 3.18055e-015
rhumerus 6.82451 76.4668 -83.6073
rradius 66.3178
rwrist 16.6538
rhand -26.1823 -23.1164
rfingers 7.12502
rthumb 0.369661 -53.0958
lclavicle -4.37326e-015 3.18055e-015
lhumerus -25.7611 -6.1076 91.0132
lradius 73.1989
lwrist 37.2525
lhand -2.48919 52.8703
lfingers 7.12502
lthumb 23.2041 81.4925
rfemur -26.2712 -16.6955 28.779
rtibia 58.2568
rfoot -0.4331 -23.8283
rtoes 7.09035
lfemur -29.361 -10.2329 -8.02795
ltibia 24.6155
lfoot -3.77705 -11.5196
ltoes -1.32503
222
root 18.3955 17.7713 6.67834 18.2639 -54.0952 -10.0221
lowerback 0.897172 7.46261 -4.80636
upperback 2.26555 9.93238 -3.39256
thorax 1.6366 4.88361 -0.811476
lowerneck -9.91315 -12.2924 -19.1682
upperneck -2.78374 -15.1755 22.277
head 4.171 -7.07296 8.75786
rclavicle -4.65156e-014 -2.38542e-014
rhumerus 7.83907 77.5983 -81.5922
rradius 66.7291
rwrist 17.0371
rhand -26.4401 -22.4113
rfingers 7.12502
rthumb 0.120669 -52.391
lclavicle -4.65156e-014 -2.38542e-014
lhumerus -26.6215 -5.89872 91.0034
lradius 72.6484
lwrist 36.4018
lhand -2.37442 52.5686
lfingers 7.12502
lthumb 23.3142 81.1769
rfemur -27.2467 -16.861 28.6227
rtibia 57.9276
rfoot -1.02935 -23.9936
rtoes 7.39976
lfemur -28.8182 -10.3086 -8.24718
ltibia 24.4702
lfoot -4.09144 -11.5075
ltoes -1.09634
223
root 18.2797 17.7868 6.72879 18.065 -54.1298 -9.73461
lowerback 0.982949 7.43909 -4.86507
upperback 2.30786 9.89569 -3.37064
thorax 1.6198 4.86371 -0.767503
lowerneck -9.94965 -12.3299 -19.1615
upperneck -2.81741 -15.2239 22.3567
head 4.1855 -7.09432 8.77378
rclavicle -1.51076e-014 -2.54444e-014
rhumerus 9.43897 78.6664 -78.9392
rradius 67.2401
rwrist 17.5338
rhand -26.7724 -21.6974
rfingers 7.12502
rthumb -0.200217 -51.677
lclavicle -1.51076e-014 -2.54444e-014
lhumerus -27.4213 -5.70364 90.9754
lradius 72.1127
lwrist 35.5431
lhand -2.26908 52.2595
lfingers 7.12502
lthumb 23.4153 80.8549
rfemur -28.191 -17.0024 28.4692
rtibia 57.4685
rfoot -1.63597 -24.1132
rtoes 7.63601
lfemur -28.2699 -10.3776 -8.45971
ltibia 24.2982
lfoot -4.39989 -11.4847
ltoes -0.911596
224
root 18.1645 17.8017 6.77799 17.875 -54.1727 -9.45224
lowerback 1.06197 7.41276 -4.91868
upperback 2.34261 9.85544 -3.35228
thorax 1.60057 4.84231 -0.72925
lowerneck -9.98713 -12.3637 -19.1531
upperneck -2.84357 -15.2679 22.432
head 4.2009 -7.11342 8.78849
rclavicle -3.06128e-014 -4.77083e-015
rhumerus 11.7461 79.6429 -75.5291
rradius 67.8451
rwrist 18.1456
rhand -27.1858 -20.9689
rfingers 7.12502
rthumb -0.599587 -50.9478
lclavicle -3.06128e-014 -4.77083e-015
lhumerus -28.1617 -5.52348 90.9266
lradius 71.5952
lwrist 34.6816
lhand -2.1853 51.9514
lfingers 7.12502
lthumb 23.4957 80.5366
rfemur -29.0993 -17.1197 28.3183
rtibia 56.8793
rfoot -2.24481 -24.1881
rtoes 7.79757
lfemur -27.717 -10.4401 -8.66471
ltibia 24.1031
lfoot -4.70293 -11.4575
ltoes -0.75973
225
root 18.0496 17.816 6.82602 17.6939 -54.2245 -9.17665
lowerback 1.1351 7.38461 -4.9656
upperback 2.36942 9.81288 -3.33771
thorax 1.57828 4.82009 -0.69796
lowerneck -10.0233 -12.3937 -19.1421
upperneck -2.86325 -15.3079 22.5045
head 4.21669 -7.13051 8.8025
rclavicle 7.7526e-014 3.18055e-015
rhumerus 14.8761 80.4992 -71.2415
rradius 68.546
rwrist 18.8676
rhand -27.6946 -20.2139
rfingers 7.12502
rthumb -1.09091 -50.1908
lclavicle 7.7526e-014 3.18055e-015
lhumerus -28.8457 -5.36036 90.8558
lradius 71.0979
lwrist 33.8231
lhand -2.11499 51.6453
lfingers 7.12502
lthumb 23.5631 80.2218
rfemur -29.9662 -17.2106 28.1691
rtibia 56.1609
rfoot -2.84714 -24.219
rtoes 7.87803
lfemur -27.1585 -10.498 -8.86181
ltibia 23.8879
lfoot -5.0018 -11.4226
ltoes -0.637505
